<svg xmlns="http://www.w3.org/2000/svg" viewBox="0 0 1024 1024">
  <path d="M933.12 333.41l-43-30.75a229.42 229.42 0 0 0-56.53-109.22c6.19-15.47 26.44-76.78-6.19-160 0 0-50.44-15.94-165.09 62.81-25.5-7.12-51.94-11-78.75-13L512 32l-71.53 51.19c-26.81 2.16-53.25 5.91-78.75 13C247.06 17 196.63 33.41 196.63 33.41c-32.62 83.16-12.47 144.56-6.19 160a229.85 229.85 0 0 0-56.53 109.22l-43 30.75A63 63 0 0 0 64 385.25V928a64.24 64.24 0 0 0 64 64h768a64.24 64.24 0 0 0 64-64V385.25a62.22 62.22 0 0 0-26.91-51.84zM896 896L608 704l288-192v384zm-704 32l320-192 320 192H192zm-64-416l288 192-288 192zm384 160L229.16 494.56a238.7 238.7 0 0 1-4.12-43.5c0-36.75 18.28-71.53 48.94-100.12 51.37-47.25 139.22-22.22 238.12-22.22 99.37 0 186.28-25.12 238.12 22.22 31.12 28.5 48.94 62.81 48.94 100.12a236 236 0 0 1-4.16 42.28zm120.47-301.19c-31.69 0-57.56 38.16-57.56 86.06s25.87 86.53 57.56 86.53S690 504.78 690 456.88s-25.38-86.07-57.53-86.07zm-240.94 0c-31.69 0-57.56 38.62-57.56 86.06s25.87 86.53 57.56 86.53 57.56-38.62 57.56-86.53-25.87-86.06-57.56-86.06z"/>
</svg>
